<?xml version="1.0" encoding="UTF-8"?>
<svg xmlns="http://www.w3.org/2000/svg" version="1.1" width="240" height="240" viewBox="0 0 240 240"><rect x="0" y="0" width="240" height="240" fill="#ffffff"/><g transform="scale(6.486)"><g transform="translate(2,2)"><path fill-rule="evenodd" d="M9 0L9 1L8 1L8 2L9 2L9 3L8 3L8 4L10 4L10 7L11 7L11 4L12 4L12 5L13 5L13 4L14 4L14 5L15 5L15 6L14 6L14 7L15 7L15 8L16 8L16 9L18 9L18 10L17 10L17 11L16 11L16 10L15 10L15 9L14 9L14 8L13 8L13 6L12 6L12 9L14 9L14 12L15 12L15 13L18 13L18 15L19 15L19 14L22 14L22 15L20 15L20 17L19 17L19 18L20 18L20 21L18 21L18 20L19 20L19 19L18 19L18 20L16 20L16 18L15 18L15 19L14 19L14 20L16 20L16 21L17 21L17 22L15 22L15 21L12 21L12 19L13 19L13 18L9 18L9 19L8 19L8 17L10 17L10 16L11 16L11 13L12 13L12 14L13 14L13 15L12 15L12 17L13 17L13 16L14 16L14 17L15 17L15 16L16 16L16 17L18 17L18 16L16 16L16 14L14 14L14 13L12 13L12 11L13 11L13 10L11 10L11 11L10 11L10 9L11 9L11 8L6 8L6 9L5 9L5 8L0 8L0 9L1 9L1 10L2 10L2 11L1 11L1 13L3 13L3 14L1 14L1 15L3 15L3 16L2 16L2 18L1 18L1 16L0 16L0 18L1 18L1 19L0 19L0 20L1 20L1 21L0 21L0 25L1 25L1 21L2 21L2 22L4 22L4 20L3 20L3 19L5 19L5 20L6 20L6 21L5 21L5 22L6 22L6 23L7 23L7 24L5 24L5 25L7 25L7 24L9 24L9 22L11 22L11 21L12 21L12 22L13 22L13 23L12 23L12 25L13 25L13 24L14 24L14 25L18 25L18 24L14 24L14 23L18 23L18 22L20 22L20 23L21 23L21 24L22 24L22 25L19 25L19 26L17 26L17 27L16 27L16 26L15 26L15 27L14 27L14 28L15 28L15 29L12 29L12 27L13 27L13 26L11 26L11 23L10 23L10 26L9 26L9 25L8 25L8 27L9 27L9 28L8 28L8 33L9 33L9 32L10 32L10 33L11 33L11 32L10 32L10 31L11 31L11 30L10 30L10 29L12 29L12 30L13 30L13 31L12 31L12 33L13 33L13 32L14 32L14 33L15 33L15 32L16 32L16 31L18 31L18 30L20 30L20 32L22 32L22 33L28 33L28 31L27 31L27 30L26 30L26 29L28 29L28 30L29 30L29 29L30 29L30 31L29 31L29 33L30 33L30 32L31 32L31 33L32 33L32 32L31 32L31 30L33 30L33 27L32 27L32 26L33 26L33 24L32 24L32 26L31 26L31 25L30 25L30 26L29 26L29 24L31 24L31 23L32 23L32 22L33 22L33 21L32 21L32 20L31 20L31 19L32 19L32 18L33 18L33 17L32 17L32 16L31 16L31 15L32 15L32 14L33 14L33 13L31 13L31 15L30 15L30 16L31 16L31 19L30 19L30 17L29 17L29 16L28 16L28 15L27 15L27 13L26 13L26 12L24 12L24 13L23 13L23 10L24 10L24 11L25 11L25 10L27 10L27 12L28 12L28 13L30 13L30 12L31 12L31 11L32 11L32 10L33 10L33 9L32 9L32 8L31 8L31 9L30 9L30 8L29 8L29 9L30 9L30 10L29 10L29 11L30 11L30 12L28 12L28 10L27 10L27 9L28 9L28 8L27 8L27 9L26 9L26 8L24 8L24 7L25 7L25 6L24 6L24 7L23 7L23 6L22 6L22 5L24 5L24 4L25 4L25 2L24 2L24 4L23 4L23 3L22 3L22 1L24 1L24 0L19 0L19 1L21 1L21 2L18 2L18 3L17 3L17 1L15 1L15 0L14 0L14 1L11 1L11 2L10 2L10 0ZM12 2L12 4L13 4L13 3L14 3L14 4L15 4L15 5L17 5L17 7L16 7L16 6L15 6L15 7L16 7L16 8L18 8L18 9L21 9L21 10L19 10L19 11L17 11L17 12L18 12L18 13L19 13L19 12L20 12L20 13L22 13L22 14L23 14L23 16L26 16L26 17L24 17L24 18L23 18L23 17L22 17L22 16L21 16L21 19L22 19L22 18L23 18L23 19L24 19L24 20L25 20L25 22L23 22L23 21L22 21L22 20L21 20L21 23L22 23L22 22L23 22L23 24L26 24L26 23L25 23L25 22L26 22L26 21L27 21L27 20L28 20L28 19L27 19L27 18L29 18L29 17L27 17L27 15L25 15L25 14L26 14L26 13L24 13L24 14L23 14L23 13L22 13L22 12L21 12L21 11L22 11L22 10L23 10L23 7L22 7L22 6L21 6L21 7L22 7L22 8L20 8L20 5L19 5L19 7L18 7L18 5L17 5L17 4L15 4L15 3L16 3L16 2ZM10 3L10 4L11 4L11 3ZM18 3L18 4L19 4L19 3ZM20 3L20 4L22 4L22 3ZM8 5L8 7L9 7L9 5ZM2 9L2 10L3 10L3 13L4 13L4 14L3 14L3 15L4 15L4 18L5 18L5 17L6 17L6 18L7 18L7 17L6 17L6 16L7 16L7 15L8 15L8 14L10 14L10 13L11 13L11 12L10 12L10 13L9 13L9 12L7 12L7 11L6 11L6 12L7 12L7 13L6 13L6 14L7 14L7 15L6 15L6 16L5 16L5 15L4 15L4 14L5 14L5 13L4 13L4 11L5 11L5 10L3 10L3 9ZM6 9L6 10L7 10L7 9ZM8 10L8 11L9 11L9 10ZM30 10L30 11L31 11L31 10ZM7 13L7 14L8 14L8 13ZM9 15L9 16L10 16L10 15ZM14 15L14 16L15 16L15 15ZM26 17L26 18L25 18L25 20L26 20L26 18L27 18L27 17ZM1 19L1 20L2 20L2 19ZM6 19L6 20L7 20L7 19ZM9 19L9 20L8 20L8 22L9 22L9 20L10 20L10 19ZM29 19L29 21L28 21L28 22L27 22L27 23L28 23L28 24L29 24L29 23L28 23L28 22L29 22L29 21L30 21L30 23L31 23L31 20L30 20L30 19ZM6 21L6 22L7 22L7 21ZM2 23L2 24L3 24L3 25L4 25L4 23ZM22 25L22 26L21 26L21 27L22 27L22 26L24 26L24 25ZM25 25L25 28L28 28L28 25ZM19 26L19 28L20 28L20 30L23 30L23 29L24 29L24 31L22 31L22 32L27 32L27 31L26 31L26 30L25 30L25 29L24 29L24 28L23 28L23 29L22 29L22 28L20 28L20 26ZM26 26L26 27L27 27L27 26ZM10 27L10 28L11 28L11 27ZM17 27L17 28L16 28L16 29L15 29L15 30L16 30L16 29L17 29L17 28L18 28L18 27ZM31 27L31 28L30 28L30 29L31 29L31 28L32 28L32 27ZM14 31L14 32L15 32L15 31ZM17 32L17 33L18 33L18 32ZM0 0L0 7L7 7L7 0ZM1 1L1 6L6 6L6 1ZM2 2L2 5L5 5L5 2ZM33 0L26 0L26 7L33 7ZM32 1L27 1L27 6L32 6ZM31 2L28 2L28 5L31 5ZM0 33L7 33L7 26L0 26ZM1 32L6 32L6 27L1 27ZM2 31L5 31L5 28L2 28Z" fill="#0f4d77"/></g></g></svg>
