<?xml version="1.0" encoding="UTF-8"?>
<svg xmlns="http://www.w3.org/2000/svg" version="1.1" width="240" height="240" viewBox="0 0 240 240"><rect x="0" y="0" width="240" height="240" fill="#ffffff"/><g transform="scale(5.854)"><g transform="translate(2,2)"><path fill-rule="evenodd" d="M10 0L10 2L11 2L11 0ZM12 0L12 1L13 1L13 2L12 2L12 4L13 4L13 3L14 3L14 4L15 4L15 5L17 5L17 6L16 6L16 8L17 8L17 9L18 9L18 11L19 11L19 10L20 10L20 11L21 11L21 12L22 12L22 13L19 13L19 14L22 14L22 15L19 15L19 18L20 18L20 16L22 16L22 17L23 17L23 18L21 18L21 19L20 19L20 20L22 20L22 21L18 21L18 20L19 20L19 19L18 19L18 20L17 20L17 17L18 17L18 16L15 16L15 15L16 15L16 14L15 14L15 15L14 15L14 16L15 16L15 17L12 17L12 15L13 15L13 14L10 14L10 13L11 13L11 12L10 12L10 11L11 11L11 9L12 9L12 10L13 10L13 11L12 11L12 13L13 13L13 12L14 12L14 13L18 13L18 12L14 12L14 11L16 11L16 9L12 9L12 7L13 7L13 5L11 5L11 6L10 6L10 4L11 4L11 3L8 3L8 4L9 4L9 5L8 5L8 7L9 7L9 8L6 8L6 9L7 9L7 10L5 10L5 11L4 11L4 9L5 9L5 8L0 8L0 9L3 9L3 13L4 13L4 12L5 12L5 13L7 13L7 14L5 14L5 15L4 15L4 16L3 16L3 17L1 17L1 21L0 21L0 23L1 23L1 21L2 21L2 23L3 23L3 22L4 22L4 20L5 20L5 21L7 21L7 22L6 22L6 23L8 23L8 24L6 24L6 25L7 25L7 26L5 26L5 27L4 27L4 25L5 25L5 23L4 23L4 25L3 25L3 27L4 27L4 29L7 29L7 28L6 28L6 27L7 27L7 26L8 26L8 24L9 24L9 25L12 25L12 26L13 26L13 27L12 27L12 29L13 29L13 28L14 28L14 29L16 29L16 30L15 30L15 31L14 31L14 32L15 32L15 33L12 33L12 31L13 31L13 30L11 30L11 33L12 33L12 34L13 34L13 35L12 35L12 37L13 37L13 36L14 36L14 37L15 37L15 36L16 36L16 35L17 35L17 33L18 33L18 32L20 32L20 33L19 33L19 34L21 34L21 32L22 32L22 33L23 33L23 34L22 34L22 35L20 35L20 36L22 36L22 37L23 37L23 36L25 36L25 37L27 37L27 36L25 36L25 35L23 35L23 34L26 34L26 35L28 35L28 36L29 36L29 37L30 37L30 35L28 35L28 34L29 34L29 33L30 33L30 34L31 34L31 35L32 35L32 36L31 36L31 37L37 37L37 30L35 30L35 31L36 31L36 32L34 32L34 33L33 33L33 30L34 30L34 29L35 29L35 28L32 28L32 27L34 27L34 26L35 26L35 27L36 27L36 28L37 28L37 26L36 26L36 25L37 25L37 22L36 22L36 21L37 21L37 18L36 18L36 17L37 17L37 14L36 14L36 13L37 13L37 12L36 12L36 11L37 11L37 10L36 10L36 8L35 8L35 9L34 9L34 8L33 8L33 11L31 11L31 10L32 10L32 8L31 8L31 10L29 10L29 9L30 9L30 8L29 8L29 9L28 9L28 7L29 7L29 3L28 3L28 1L29 1L29 0L28 0L28 1L27 1L27 0L26 0L26 1L27 1L27 3L24 3L24 2L25 2L25 1L24 1L24 0L23 0L23 1L22 1L22 0L19 0L19 1L16 1L16 0ZM8 1L8 2L9 2L9 1ZM19 1L19 2L16 2L16 4L17 4L17 3L19 3L19 4L20 4L20 3L21 3L21 5L18 5L18 6L17 6L17 8L18 8L18 9L20 9L20 8L21 8L21 11L22 11L22 10L23 10L23 11L24 11L24 12L26 12L26 11L25 11L25 9L24 9L24 10L23 10L23 9L22 9L22 8L21 8L21 7L22 7L22 5L23 5L23 8L26 8L26 10L28 10L28 9L27 9L27 8L26 8L26 6L27 6L27 7L28 7L28 6L27 6L27 5L28 5L28 4L27 4L27 5L26 5L26 4L25 4L25 5L23 5L23 4L22 4L22 3L21 3L21 2L22 2L22 1ZM23 1L23 2L24 2L24 1ZM14 2L14 3L15 3L15 2ZM25 5L25 6L24 6L24 7L25 7L25 6L26 6L26 5ZM9 6L9 7L10 7L10 6ZM11 6L11 7L12 7L12 6ZM14 6L14 8L15 8L15 6ZM18 6L18 8L19 8L19 6ZM20 6L20 7L21 7L21 6ZM10 8L10 9L11 9L11 8ZM0 10L0 14L1 14L1 10ZM9 10L9 11L10 11L10 10ZM35 10L35 11L34 11L34 12L35 12L35 13L36 13L36 12L35 12L35 11L36 11L36 10ZM6 11L6 12L7 12L7 11ZM27 11L27 13L24 13L24 14L23 14L23 13L22 13L22 14L23 14L23 15L25 15L25 16L27 16L27 15L26 15L26 14L30 14L30 15L29 15L29 16L28 16L28 17L24 17L24 16L23 16L23 17L24 17L24 18L23 18L23 19L22 19L22 20L24 20L24 21L25 21L25 23L24 23L24 22L23 22L23 21L22 21L22 22L23 22L23 24L21 24L21 23L20 23L20 22L19 22L19 24L18 24L18 22L16 22L16 21L17 21L17 20L16 20L16 19L14 19L14 20L13 20L13 21L12 21L12 19L13 19L13 18L12 18L12 17L11 17L11 15L10 15L10 14L9 14L9 12L8 12L8 14L7 14L7 15L5 15L5 18L4 18L4 19L3 19L3 18L2 18L2 19L3 19L3 20L2 20L2 21L3 21L3 20L4 20L4 19L5 19L5 18L8 18L8 17L6 17L6 16L7 16L7 15L8 15L8 16L10 16L10 17L9 17L9 19L10 19L10 20L9 20L9 21L8 21L8 23L9 23L9 24L10 24L10 22L13 22L13 23L12 23L12 25L15 25L15 26L16 26L16 25L15 25L15 24L14 24L14 23L15 23L15 22L16 22L16 23L17 23L17 24L18 24L18 25L17 25L17 27L16 27L16 29L17 29L17 28L18 28L18 29L19 29L19 27L20 27L20 26L18 26L18 25L19 25L19 24L20 24L20 25L21 25L21 27L22 27L22 28L20 28L20 29L22 29L22 31L24 31L24 33L25 33L25 32L26 32L26 31L27 31L27 32L28 32L28 29L26 29L26 30L25 30L25 29L24 29L24 30L23 30L23 29L22 29L22 28L24 28L24 27L25 27L25 28L26 28L26 27L27 27L27 26L28 26L28 27L29 27L29 26L30 26L30 27L31 27L31 25L32 25L32 26L34 26L34 25L32 25L32 24L31 24L31 21L32 21L32 22L33 22L33 21L34 21L34 23L33 23L33 24L36 24L36 23L35 23L35 21L34 21L34 20L36 20L36 19L34 19L34 17L32 17L32 16L33 16L33 15L34 15L34 16L35 16L35 17L36 17L36 15L34 15L34 13L32 13L32 12L31 12L31 13L30 13L30 12L28 12L28 11ZM31 13L31 16L29 16L29 17L28 17L28 18L26 18L26 20L25 20L25 21L26 21L26 23L28 23L28 24L29 24L29 25L28 25L28 26L29 26L29 25L31 25L31 24L30 24L30 22L29 22L29 21L31 21L31 20L32 20L32 21L33 21L33 18L32 18L32 17L31 17L31 16L32 16L32 15L33 15L33 14L32 14L32 13ZM8 14L8 15L9 15L9 14ZM0 15L0 16L1 16L1 15ZM10 17L10 19L11 19L11 17ZM15 17L15 18L16 18L16 17ZM29 17L29 18L28 18L28 19L27 19L27 20L29 20L29 19L30 19L30 20L31 20L31 19L30 19L30 18L31 18L31 17ZM6 19L6 20L8 20L8 19ZM10 20L10 21L9 21L9 22L10 22L10 21L11 21L11 20ZM14 20L14 21L15 21L15 20ZM27 21L27 22L28 22L28 21ZM0 24L0 29L1 29L1 26L2 26L2 24ZM24 24L24 25L23 25L23 26L22 26L22 27L23 27L23 26L24 26L24 25L27 25L27 24ZM9 26L9 27L8 27L8 28L9 28L9 29L8 29L8 31L10 31L10 29L11 29L11 27L10 27L10 26ZM9 27L9 28L10 28L10 27ZM14 27L14 28L15 28L15 27ZM29 29L29 32L32 32L32 29ZM18 30L18 31L15 31L15 32L16 32L16 33L15 33L15 34L16 34L16 33L17 33L17 32L18 32L18 31L20 31L20 32L21 32L21 30ZM30 30L30 31L31 31L31 30ZM8 32L8 37L11 37L11 36L10 36L10 35L11 35L11 34L10 34L10 32ZM26 33L26 34L28 34L28 33ZM31 33L31 34L32 34L32 35L34 35L34 36L36 36L36 35L35 35L35 34L32 34L32 33ZM14 35L14 36L15 36L15 35ZM18 35L18 36L17 36L17 37L18 37L18 36L19 36L19 35ZM22 35L22 36L23 36L23 35ZM0 0L0 7L7 7L7 0ZM1 1L1 6L6 6L6 1ZM2 2L2 5L5 5L5 2ZM37 0L30 0L30 7L37 7ZM36 1L31 1L31 6L36 6ZM35 2L32 2L32 5L35 5ZM0 37L7 37L7 30L0 30ZM1 36L6 36L6 31L1 31ZM2 35L5 35L5 32L2 32Z" fill="#0f4d77"/></g></g></svg>
